<svg width="9.001221" height="12.001953" viewBox="0 0 9.00122 12.002" fill="none" xmlns="http://www.w3.org/2000/svg" xmlns:xlink="http://www.w3.org/1999/xlink">
    <desc>
        Created with Pixso.
    </desc>
    <defs/>
    <path id="Vector" d="M7.04 12C6.56 12 6.1 11.83 5.74 11.54L0.64 7.33C0.44 7.17 0.27 6.96 0.16 6.74C0.05 6.5 0 6.25 0 6C0 5.74 0.05 5.49 0.16 5.26C0.27 5.03 0.44 4.83 0.64 4.67L5.74 0.46C6.04 0.21 6.41 0.06 6.8 0.01C7.19 -0.04 7.59 0.03 7.95 0.2C8.26 0.33 8.52 0.56 8.7 0.84C8.89 1.12 8.99 1.45 9 1.79L9 10.21C8.99 10.54 8.89 10.87 8.7 11.16C8.52 11.44 8.26 11.66 7.95 11.8C7.66 11.93 7.35 12 7.04 12ZM2.18 6L7 10L7 2.09L2.18 6Z" fill="#2D2D2D" fill-opacity="1.000000" fill-rule="nonzero"/>
</svg>
