<svg width="48" height="48" viewBox="0 0 48 48" fill="none" xmlns="http://www.w3.org/2000/svg">
    <rect width="48" height="48" rx="24" fill="#2D2D2D"/>
    <path d="M24.6851 17.0003L24 17.7028L23.315 17.0003C21.184 14.815 17.7291 14.815 15.5982 17.0003C13.5245 19.1269 13.4608 22.5541 15.4539 24.7603L21.1803 31.0985C22.7015 32.7823 25.2984 32.7823 26.8197 31.0985L32.5461 24.7602C34.5392 22.5541 34.4755 19.1269 32.4018 17.0003C30.2709 14.815 26.816 14.815 24.6851 17.0003Z" fill="#FAFAFA"/>
    <path fill-rule="evenodd" clip-rule="evenodd" d="M28.25 18.5C28.25 18.0858 28.5858 17.75 29 17.75C30.5188 17.75 31.75 18.9812 31.75 20.5C31.75 20.9142 31.4142 21.25 31 21.25C30.5858 21.25 30.25 20.9142 30.25 20.5C30.25 19.8096 29.6904 19.25 29 19.25C28.5858 19.25 28.25 18.9142 28.25 18.5Z" fill="#CFCFCF"/>
</svg>
