<svg width="48" height="48" viewBox="0 0 48 48" fill="none" xmlns="http://www.w3.org/2000/svg">
<path d="M0 24C0 10.7452 10.7452 0 24 0C37.2548 0 48 10.7452 48 24C48 37.2548 37.2548 48 24 48C10.7452 48 0 37.2548 0 24Z" fill="#2D2D2D"/>
<path opacity="0.4" d="M23.3168 17.4244C21.1931 15.9363 18.2127 15.2619 15.9943 15.0113C14.8964 14.8872 14 15.804 14 16.9352V28.2C14 29.3311 14.8964 30.2483 15.9943 30.3723C18.2127 30.623 21.1931 31.2974 23.3168 32.7855C23.5209 32.9285 23.7605 33 24 33V17.639C23.7605 17.639 23.5209 17.5674 23.3168 17.4244Z" fill="#FAFAFA"/>
<path fill-rule="evenodd" clip-rule="evenodd" d="M16.2589 20.1392C16.3223 19.7299 16.7056 19.4495 17.1149 19.5128C18.4177 19.7146 19.8848 20.0518 21.2706 20.5877C21.6569 20.7371 21.849 21.1714 21.6996 21.5578C21.5502 21.9441 21.1159 22.1362 20.7296 21.9868C19.471 21.5 18.1141 21.1855 16.8853 20.9952C16.476 20.9318 16.1955 20.5486 16.2589 20.1392Z" fill="#FAFAFA"/>
<path fill-rule="evenodd" clip-rule="evenodd" d="M16.2589 24.1392C16.3223 23.7299 16.7056 23.4495 17.1149 23.5128C17.7746 23.615 18.4746 23.7516 19.1836 23.9305C19.5852 24.0318 19.8286 24.4396 19.7273 24.8412C19.626 25.2428 19.2183 25.4863 18.8166 25.3849C18.1582 25.2188 17.5046 25.0911 16.8853 24.9952C16.476 24.9318 16.1955 24.5486 16.2589 24.1392Z" fill="#FAFAFA"/>
<path d="M24.6832 17.4244C26.8069 15.9363 29.7873 15.2619 32.0057 15.0113C33.1036 14.8872 34 15.804 34 16.9352V28.2C34 29.3311 33.1036 30.2483 32.0057 30.3723C29.7873 30.623 26.8069 31.2974 24.6832 32.7855C24.4791 32.9285 24.2395 33 24 33V17.639C24.2395 17.639 24.4791 17.5674 24.6832 17.4244Z" fill="#FAFAFA"/>
</svg>
